<mxfile host="app.diagrams.net" agent="Mozilla/5.0 (Windows NT 10.0; Win64; x64) AppleWebKit/537.36 (KHTML, like Gecko) Chrome/141.0.0.0 Safari/537.36" version="28.2.7">
  <diagram name="Page-1" id="C3WealewealkColp6HQC">
    <mxGraphModel dx="1425" dy="536" grid="1" gridSize="10" guides="1" tooltips="1" connect="1" arrows="1" fold="1" page="1" pageScale="1" pageWidth="850" pageHeight="1100" math="0" shadow="0">
      <root>
        <mxCell id="0" />
        <mxCell id="1" parent="0" />
        <mxCell id="QwHBwgnYl4Hv5XBhtzQy-1" value="" style="rounded=0;whiteSpace=wrap;html=1;fillColor=#dae8fc;fillStyle=hatch;strokeColor=#6c8ebf;" parent="1" vertex="1">
          <mxGeometry x="225" y="240" width="150" height="200" as="geometry" />
        </mxCell>
        <mxCell id="41EBdhxNxVLZV15aZkeJ-1" value="" style="rounded=0;whiteSpace=wrap;html=1;fillColor=#d5e8d4;strokeColor=#82b366;fillStyle=hatch;" parent="1" vertex="1">
          <mxGeometry x="667.5" y="150" width="290" height="280" as="geometry" />
        </mxCell>
        <mxCell id="41EBdhxNxVLZV15aZkeJ-2" value="Redis" style="rounded=0;whiteSpace=wrap;html=1;fillColor=#d5e8d4;strokeColor=#82b366;" parent="1" vertex="1">
          <mxGeometry x="770" y="490" width="120" height="60" as="geometry" />
        </mxCell>
        <mxCell id="41EBdhxNxVLZV15aZkeJ-5" style="edgeStyle=orthogonalEdgeStyle;rounded=0;orthogonalLoop=1;jettySize=auto;html=1;" parent="1" source="41EBdhxNxVLZV15aZkeJ-3" target="41EBdhxNxVLZV15aZkeJ-4" edge="1">
          <mxGeometry relative="1" as="geometry" />
        </mxCell>
        <mxCell id="41EBdhxNxVLZV15aZkeJ-14" style="edgeStyle=orthogonalEdgeStyle;rounded=0;orthogonalLoop=1;jettySize=auto;html=1;entryX=0;entryY=0.5;entryDx=0;entryDy=0;" parent="1" source="41EBdhxNxVLZV15aZkeJ-3" target="41EBdhxNxVLZV15aZkeJ-11" edge="1">
          <mxGeometry relative="1" as="geometry" />
        </mxCell>
        <mxCell id="41EBdhxNxVLZV15aZkeJ-15" style="edgeStyle=orthogonalEdgeStyle;rounded=0;orthogonalLoop=1;jettySize=auto;html=1;entryX=0;entryY=0.5;entryDx=0;entryDy=0;" parent="1" source="41EBdhxNxVLZV15aZkeJ-3" target="41EBdhxNxVLZV15aZkeJ-10" edge="1">
          <mxGeometry relative="1" as="geometry" />
        </mxCell>
        <mxCell id="41EBdhxNxVLZV15aZkeJ-16" style="edgeStyle=orthogonalEdgeStyle;rounded=0;orthogonalLoop=1;jettySize=auto;html=1;entryX=0;entryY=0.5;entryDx=0;entryDy=0;" parent="1" source="41EBdhxNxVLZV15aZkeJ-3" target="41EBdhxNxVLZV15aZkeJ-12" edge="1">
          <mxGeometry relative="1" as="geometry" />
        </mxCell>
        <mxCell id="41EBdhxNxVLZV15aZkeJ-17" style="edgeStyle=orthogonalEdgeStyle;rounded=0;orthogonalLoop=1;jettySize=auto;html=1;entryX=0;entryY=0.5;entryDx=0;entryDy=0;" parent="1" source="41EBdhxNxVLZV15aZkeJ-3" target="41EBdhxNxVLZV15aZkeJ-13" edge="1">
          <mxGeometry relative="1" as="geometry" />
        </mxCell>
        <mxCell id="41EBdhxNxVLZV15aZkeJ-3" value="NGINX" style="rounded=0;whiteSpace=wrap;html=1;fillColor=#d5e8d4;strokeColor=#82b366;" parent="1" vertex="1">
          <mxGeometry x="240" y="260" width="120" height="60" as="geometry" />
        </mxCell>
        <mxCell id="41EBdhxNxVLZV15aZkeJ-4" value="Built Frontend Files&lt;br&gt;(.html, .css, .js)" style="rounded=0;whiteSpace=wrap;html=1;fillColor=#ffe6cc;strokeColor=#d79b00;" parent="1" vertex="1">
          <mxGeometry x="240" y="370" width="120" height="60" as="geometry" />
        </mxCell>
        <mxCell id="41EBdhxNxVLZV15aZkeJ-7" style="edgeStyle=orthogonalEdgeStyle;rounded=0;orthogonalLoop=1;jettySize=auto;html=1;entryX=0;entryY=0.5;entryDx=0;entryDy=0;" parent="1" source="41EBdhxNxVLZV15aZkeJ-6" target="41EBdhxNxVLZV15aZkeJ-3" edge="1">
          <mxGeometry relative="1" as="geometry" />
        </mxCell>
        <mxCell id="41EBdhxNxVLZV15aZkeJ-6" value="User" style="shape=umlActor;verticalLabelPosition=bottom;verticalAlign=top;html=1;outlineConnect=0;" parent="1" vertex="1">
          <mxGeometry x="130" y="260" width="30" height="60" as="geometry" />
        </mxCell>
        <mxCell id="srvKpYueAVTg1VaY08hH-8" style="edgeStyle=orthogonalEdgeStyle;rounded=0;orthogonalLoop=1;jettySize=auto;html=1;entryX=0;entryY=0.5;entryDx=0;entryDy=0;" edge="1" parent="1" source="41EBdhxNxVLZV15aZkeJ-10" target="srvKpYueAVTg1VaY08hH-1">
          <mxGeometry relative="1" as="geometry" />
        </mxCell>
        <mxCell id="srvKpYueAVTg1VaY08hH-14" style="edgeStyle=orthogonalEdgeStyle;rounded=0;orthogonalLoop=1;jettySize=auto;html=1;entryX=0;entryY=0.5;entryDx=0;entryDy=0;fillColor=#f8cecc;strokeColor=#b85450;" edge="1" parent="1" source="41EBdhxNxVLZV15aZkeJ-10" target="41EBdhxNxVLZV15aZkeJ-2">
          <mxGeometry relative="1" as="geometry">
            <Array as="points">
              <mxPoint x="590" y="190" />
              <mxPoint x="590" y="520" />
            </Array>
          </mxGeometry>
        </mxCell>
        <mxCell id="41EBdhxNxVLZV15aZkeJ-10" value="User Service" style="rounded=0;whiteSpace=wrap;html=1;fillColor=#dae8fc;strokeColor=#6c8ebf;" parent="1" vertex="1">
          <mxGeometry x="450" y="160" width="120" height="60" as="geometry" />
        </mxCell>
        <mxCell id="srvKpYueAVTg1VaY08hH-9" style="edgeStyle=orthogonalEdgeStyle;rounded=0;orthogonalLoop=1;jettySize=auto;html=1;" edge="1" parent="1" source="41EBdhxNxVLZV15aZkeJ-11" target="srvKpYueAVTg1VaY08hH-4">
          <mxGeometry relative="1" as="geometry" />
        </mxCell>
        <mxCell id="srvKpYueAVTg1VaY08hH-12" style="edgeStyle=orthogonalEdgeStyle;rounded=0;orthogonalLoop=1;jettySize=auto;html=1;entryX=0;entryY=0.5;entryDx=0;entryDy=0;fillColor=#f8cecc;strokeColor=#b85450;" edge="1" parent="1" source="41EBdhxNxVLZV15aZkeJ-11" target="41EBdhxNxVLZV15aZkeJ-2">
          <mxGeometry relative="1" as="geometry">
            <Array as="points">
              <mxPoint x="630" y="290" />
              <mxPoint x="630" y="520" />
            </Array>
          </mxGeometry>
        </mxCell>
        <mxCell id="41EBdhxNxVLZV15aZkeJ-11" value="Question Service" style="rounded=0;whiteSpace=wrap;html=1;fillColor=#dae8fc;strokeColor=#6c8ebf;" parent="1" vertex="1">
          <mxGeometry x="450" y="260" width="120" height="60" as="geometry" />
        </mxCell>
        <mxCell id="srvKpYueAVTg1VaY08hH-10" style="edgeStyle=orthogonalEdgeStyle;rounded=0;orthogonalLoop=1;jettySize=auto;html=1;" edge="1" parent="1" source="41EBdhxNxVLZV15aZkeJ-12" target="srvKpYueAVTg1VaY08hH-6">
          <mxGeometry relative="1" as="geometry" />
        </mxCell>
        <mxCell id="srvKpYueAVTg1VaY08hH-13" style="edgeStyle=orthogonalEdgeStyle;rounded=0;orthogonalLoop=1;jettySize=auto;html=1;entryX=0;entryY=0.5;entryDx=0;entryDy=0;fillColor=#f8cecc;strokeColor=#b85450;" edge="1" parent="1" source="41EBdhxNxVLZV15aZkeJ-12" target="41EBdhxNxVLZV15aZkeJ-2">
          <mxGeometry relative="1" as="geometry">
            <Array as="points">
              <mxPoint x="610" y="380" />
              <mxPoint x="610" y="520" />
            </Array>
          </mxGeometry>
        </mxCell>
        <mxCell id="41EBdhxNxVLZV15aZkeJ-12" value="Collaboration Service" style="rounded=0;whiteSpace=wrap;html=1;fillColor=#dae8fc;strokeColor=#6c8ebf;" parent="1" vertex="1">
          <mxGeometry x="450" y="350" width="120" height="60" as="geometry" />
        </mxCell>
        <mxCell id="41EBdhxNxVLZV15aZkeJ-13" value="Matching Service" style="rounded=0;whiteSpace=wrap;html=1;fillColor=#dae8fc;strokeColor=#6c8ebf;" parent="1" vertex="1">
          <mxGeometry x="450" y="440" width="120" height="60" as="geometry" />
        </mxCell>
        <mxCell id="QwHBwgnYl4Hv5XBhtzQy-2" value="NGINX Container" style="text;html=1;whiteSpace=wrap;strokeColor=none;fillColor=none;align=center;verticalAlign=middle;rounded=0;" parent="1" vertex="1">
          <mxGeometry x="230" y="200" width="140" height="40" as="geometry" />
        </mxCell>
        <mxCell id="srvKpYueAVTg1VaY08hH-1" value="&quot;&lt;b&gt;users&lt;/b&gt;&quot;&lt;div&gt;collection&lt;/div&gt;" style="rounded=0;whiteSpace=wrap;html=1;fillColor=#dae8fc;strokeColor=#6c8ebf;" vertex="1" parent="1">
          <mxGeometry x="752.5" y="160" width="120" height="60" as="geometry" />
        </mxCell>
        <mxCell id="srvKpYueAVTg1VaY08hH-2" value="MongoDB" style="text;html=1;whiteSpace=wrap;strokeColor=none;fillColor=none;align=center;verticalAlign=middle;rounded=0;" vertex="1" parent="1">
          <mxGeometry x="742.5" y="110" width="140" height="40" as="geometry" />
        </mxCell>
        <mxCell id="srvKpYueAVTg1VaY08hH-4" value="&quot;&lt;b&gt;questions&lt;/b&gt;&quot;&lt;div&gt;collection&lt;/div&gt;" style="rounded=0;whiteSpace=wrap;html=1;fillColor=#dae8fc;strokeColor=#6c8ebf;" vertex="1" parent="1">
          <mxGeometry x="752.5" y="260" width="120" height="60" as="geometry" />
        </mxCell>
        <mxCell id="srvKpYueAVTg1VaY08hH-6" value="&quot;&lt;b&gt;collaboration_sessions&lt;/b&gt;&quot;&lt;div&gt;collection&lt;/div&gt;" style="rounded=0;whiteSpace=wrap;html=1;fillColor=#dae8fc;strokeColor=#6c8ebf;" vertex="1" parent="1">
          <mxGeometry x="735" y="350" width="155" height="60" as="geometry" />
        </mxCell>
      </root>
    </mxGraphModel>
  </diagram>
</mxfile>
